<svg id="레이어_1" data-name="레이어 1" xmlns="http://www.w3.org/2000/svg" viewBox="0 0 199.2 51.51"><defs><style>.cls-1{fill:#1d2b53;}.cls-2{fill:#fff;}.cls-3{fill:#182f63;}.cls-4{fill:#ebe6df;}.cls-5{fill:#cbd1d6;}.cls-6{fill:#e5e8e5;}.cls-7{fill:#d1d4d3;}</style></defs><title>returnman_logo</title><path class="cls-1" d="M543.42,514.41v0l0,0Z" transform="translate(-541.01 -486.42)"/><path class="cls-2" d="M582.14,521.83l-.14-5.42v-.11a9.42,9.42,0,0,1-8.5,5.4H552a9.43,9.43,0,0,1-8.48-5.36v.37c-.09,3.62-.19,7.25-.28,10.87a3,3,0,0,0,1.83,3.09l3.29,1.63,4.47,2.22a10.73,10.73,0,0,0,4.91,1.15h10.07a9.18,9.18,0,0,0,4-.81c2.48-1.18,5.76-2.76,9-4.46a2.64,2.64,0,0,0,1.39-2.57c0-1.39,0-2.8-.09-4.17C582.17,523.05,582.15,522.44,582.14,521.83Z" transform="translate(-541.01 -486.42)"/><path class="cls-3" d="M584.44,523.59c0-.6,0-1.21-.05-1.82l-.14-5.41q-.25-10-.48-20a4.84,4.84,0,0,0-1-2.86,13.74,13.74,0,0,0-5.18-4,32.37,32.37,0,0,0-12.42-3,36.82,36.82,0,0,0-14.63,1.89,17.28,17.28,0,0,0-7.28,4.48A4.92,4.92,0,0,0,541.8,496l-.42,17.17h0l-.09,3.5c-.1,3.62-.19,7.25-.29,10.87a5.28,5.28,0,0,0,3.09,5.17l3.28,1.63c1.5.74,3,1.49,4.49,2.22a13.23,13.23,0,0,0,5.88,1.39h10.09a11.38,11.38,0,0,0,5-1c2.51-1.19,5.81-2.78,9.1-4.5a4.85,4.85,0,0,0,2.6-4.58C584.52,526.4,584.48,525,584.44,523.59Zm-16.61,12.08H557.77a10.73,10.73,0,0,1-4.91-1.15l-4.47-2.22-3.29-1.63a3,3,0,0,1-1.83-3.09c.09-3.62.19-7.25.28-10.87v-.37A9.43,9.43,0,0,0,552,521.7H573.5a9.42,9.42,0,0,0,8.5-5.4v.11l.14,5.42c0,.61,0,1.22.05,1.83,0,1.37.08,2.78.09,4.17a2.64,2.64,0,0,1-1.39,2.57c-3.26,1.7-6.54,3.28-9,4.46a9.18,9.18,0,0,1-4,.81Z" transform="translate(-541.01 -486.42)"/><path class="cls-3" d="M569.72,528.24h-13.9a.9.9,0,1,1,0-1.8h13.9a.9.9,0,1,1,0,1.8Z" transform="translate(-541.01 -486.42)"/><rect class="cls-4" x="27.82" y="24.57" width="9.91" height="7.21"/><rect class="cls-5" x="5.78" y="24.57" width="13.27" height="7.21"/><rect class="cls-6" x="19.06" y="24.57" width="5.92" height="7.21"/><rect class="cls-7" x="24.98" y="24.57" width="2.84" height="7.21"/><circle class="cls-2" cx="563.03" cy="501.59" r="6.18" transform="translate(-731.95 26.2) rotate(-42.54)"/><path class="cls-3" d="M566.69,504.79a.2.2,0,0,1,.11.19.24.24,0,0,1-.23.23H565a.25.25,0,0,1-.25-.16l-1.21-2.28a.11.11,0,0,0-.12-.08H562.3a.17.17,0,0,0-.1,0,.14.14,0,0,0,0,.1v2.11a.31.31,0,0,1-.28.28h-1.32a.25.25,0,0,1-.2-.09.22.22,0,0,1-.08-.19v-6.07a.54.54,0,0,0-.17-.4l-.08-.07a.22.22,0,0,1-.1-.19.24.24,0,0,1,.23-.23H564a2.36,2.36,0,0,1,2.36,2.36,2.41,2.41,0,0,1-.29,1.14,2.3,2.3,0,0,1-.78.83l1.2,2.28.1.14A.27.27,0,0,1,566.69,504.79Zm-2.15-4.63a.48.48,0,0,0-.48-.47H562.3a.14.14,0,0,0-.14.14v1a.1.1,0,0,0,0,.09.13.13,0,0,0,.1,0h1.76a.48.48,0,0,0,.34-.13.48.48,0,0,0,.14-.34Z" transform="translate(-541.01 -486.42)"/><path class="cls-3" d="M608.38,513.21a4.2,4.2,0,0,0,1-2.83V507.9a4.58,4.58,0,0,0-4.58-4.58H597.1a.58.58,0,0,0-.66.66V522.5a.58.58,0,0,0,.66.66h3.73a.58.58,0,0,0,.66-.66v-7c0-.08,0-.12.07-.12h1.88a.74.74,0,0,1,.84.84v6.28a.58.58,0,0,0,.66.66h3.8a.58.58,0,0,0,.66-.66v-6.38A4.23,4.23,0,0,0,608.38,513.21Zm-3.87-2.93a.89.89,0,0,1-1,1h-1.76a.4.4,0,0,1-.46-.46v-2.95a.4.4,0,0,1,.46-.45h1.76a.89.89,0,0,1,1,1Z" transform="translate(-541.01 -486.42)"/><path class="cls-3" d="M611.25,519.47v-11.6a.59.59,0,0,1,.67-.66h10.73a.59.59,0,0,1,.67.66v2.18a.59.59,0,0,1-.67.66h-6.22a.11.11,0,0,0-.12.12v2.49a.11.11,0,0,0,.12.12h5.18a.58.58,0,0,1,.66.66v2.17a.58.58,0,0,1-.66.66h-5.18a.11.11,0,0,0-.12.12v1.11a1.31,1.31,0,0,0,1.49,1.49H623a.59.59,0,0,1,.66.67v2.18a.58.58,0,0,1-.66.66h-7.14a5,5,0,0,1-3.23-1.08A3.24,3.24,0,0,1,611.25,519.47Z" transform="translate(-541.01 -486.42)"/><path class="cls-3" d="M629,510.71h-3.35a.58.58,0,0,1-.66-.66v-2.18a.58.58,0,0,1,.66-.66h12a.58.58,0,0,1,.66.66v2.18a.58.58,0,0,1-.66.66h-3.32a.11.11,0,0,0-.12.12V522.5a.58.58,0,0,1-.65.66h-3.74a.58.58,0,0,1-.66-.66V510.83A.11.11,0,0,0,629,510.71Z" transform="translate(-541.01 -486.42)"/><path class="cls-3" d="M644.76,507.87v11c0,.56.32.83,1,.83h1.12c.65,0,1-.27,1-.83v-11a.59.59,0,0,1,.67-.66h3.73a.58.58,0,0,1,.66.66v11.6a3.24,3.24,0,0,1-1.35,2.61,5,5,0,0,1-3.23,1.08h-3.95a5.12,5.12,0,0,1-3.3-1.08,3.24,3.24,0,0,1-1.35-2.61v-11.6a.58.58,0,0,1,.66-.66h3.73A.59.59,0,0,1,644.76,507.87Z" transform="translate(-541.01 -486.42)"/><path class="cls-3" d="M666.7,515.16a3,3,0,0,1,1,2.34v5a.58.58,0,0,1-.66.66h-3.8a.58.58,0,0,1-.66-.66v-4.72a.75.75,0,0,0-.85-.85h-1.87c-.05,0-.07,0-.07.12v5.45a.58.58,0,0,1-.66.66h-3.73a.58.58,0,0,1-.66-.66V507.87a.58.58,0,0,1,.66-.66h7.66a5,5,0,0,1,3.23,1.08,3.22,3.22,0,0,1,1.34,2.61v2A3,3,0,0,1,666.7,515.16Zm-6.92-4.33v2.49a.11.11,0,0,0,.12.12h2a.63.63,0,0,0,.71-.72v-1.29a.63.63,0,0,0-.71-.72h-2A.11.11,0,0,0,659.78,510.83Z" transform="translate(-541.01 -486.42)"/><path class="cls-3" d="M679.8,515.71v-7.84a.59.59,0,0,1,.67-.66h3.74a.58.58,0,0,1,.65.66V522.5a.58.58,0,0,1-.65.66h-5.37a.79.79,0,0,1-.81-.6l-3.41-8v7.92a.58.58,0,0,1-.65.66h-3.74a.58.58,0,0,1-.66-.66V507.87a.58.58,0,0,1,.66-.66h5.4a.78.78,0,0,1,.8.59Z" transform="translate(-541.01 -486.42)"/><path class="cls-3" d="M695.24,523.16a.72.72,0,0,1-.77-.62l-2.68-11.42V522.5a.58.58,0,0,1-.65.66H687.4a.58.58,0,0,1-.66-.66V504a.58.58,0,0,1,.66-.66h5.82a.71.71,0,0,1,.76.62l2.91,12.33,2.9-12.33a.72.72,0,0,1,.77-.62h5.82a.58.58,0,0,1,.66.66V522.5a.58.58,0,0,1-.66.66h-3.75a.58.58,0,0,1-.65-.66V511.12l-2.68,11.42a.72.72,0,0,1-.77.62Z" transform="translate(-541.01 -486.42)"/><path class="cls-3" d="M714.36,519.48l-.62,3.06a.67.67,0,0,1-.74.62h-3.9c-.39,0-.58-.16-.58-.48a.89.89,0,0,1,0-.22l3.54-14.63a.69.69,0,0,1,.74-.62h6.26a.69.69,0,0,1,.75.62l3.54,14.63a.69.69,0,0,1,0,.2c0,.33-.2.5-.59.5h-3.91a.68.68,0,0,1-.74-.62l-.62-3.06Zm1.6-7.76-.92,4.51h1.85Z" transform="translate(-541.01 -486.42)"/><path class="cls-3" d="M735.16,515.71v-7.84a.58.58,0,0,1,.66-.66h3.74a.58.58,0,0,1,.65.66V522.5a.58.58,0,0,1-.65.66h-5.37a.79.79,0,0,1-.81-.6l-3.41-8v7.92a.58.58,0,0,1-.65.66h-3.74a.58.58,0,0,1-.66-.66V507.87a.58.58,0,0,1,.66-.66H731a.78.78,0,0,1,.8.59Z" transform="translate(-541.01 -486.42)"/></svg>