<?xml version="1.0" encoding="utf-8"?>
<!-- Generator: Adobe Illustrator 22.1.0, SVG Export Plug-In . SVG Version: 6.00 Build 0)  -->
<svg version="1.1" id="레이어_1" xmlns="http://www.w3.org/2000/svg" xmlns:xlink="http://www.w3.org/1999/xlink" x="0px"
	 y="0px" viewBox="0 0 217 48" style="enable-background:new 0 0 217 48;" xml:space="preserve">
<style type="text/css">
	.st0{fill:#FFFFFF;}
	.st1{fill:#2B7C41;}
</style>
<g>
	<path class="st0" d="M40.5,30.2c-0.9,0.9-2.4,1.3-3.7,1.8c-0.5,0.2-1,0.2-1.5,0.3c-1.4,0.3-2.8,0.1-4.1-0.4
		C29.1,31,27,30,24.8,29.4c-0.4-0.1-0.7-0.1-1.1-0.2c-0.1,0-0.3,0-0.4,0c-0.1,0-0.2,0-0.3,0c-0.1,0-0.2,0-0.3,0c-0.1,0-0.3,0-0.4,0
		c-0.4,0-0.7,0.1-1.1,0.2c-2.2,0.5-4.2,1.5-6.3,2.4c-1.4,0.6-2.7,0.8-4.1,0.4c-0.5-0.1-1-0.2-1.5-0.3c-1.3-0.4-2.8-0.8-3.7-1.8l0,0
		c-0.9-0.6-1.9-1.5-2.8-2.5v12.8c0,2.9,2.4,5.3,5.3,5.3h29.8c2.9,0,5.3-2.4,5.3-5.3V28.1C42.2,28.9,41.3,29.7,40.5,30.2L40.5,30.2z"
		/>
	<path class="st1" d="M29.6,39.3H16.4c-0.5,0-0.9-0.4-0.9-0.9s0.4-0.9,0.9-0.9h13.2c0.5,0,0.9,0.4,0.9,0.9S30.1,39.3,29.6,39.3z"/>
	<path class="st1" d="M37.7,0.5H7.9C3.7,0.5,0.3,3.9,0.3,8v5.1v12.1v15.4c0,4.1,3.4,7.5,7.5,7.5h29.8c4.1,0,7.5-3.4,7.5-7.5V25.6
		V14.1V8C45.2,3.9,41.8,0.5,37.7,0.5z M18.6,14.1c-0.3,0.3-0.6,0.7-0.9,1.1C18,14.8,18.3,14.4,18.6,14.1z M17.1,16.6
		c0.1-0.2,0.2-0.5,0.3-0.7C17.2,16.1,17.2,16.4,17.1,16.6c-0.1,0.3-0.2,0.5-0.4,0.5C16.8,17.1,17,16.9,17.1,16.6z M42.9,40.5
		c0,2.9-2.4,5.3-5.3,5.3H7.9c-2.9,0-5.3-2.4-5.3-5.3V27.7c0.9,0.9,1.9,1.9,2.8,2.5l0,0c0.9,0.9,2.4,1.3,3.7,1.8
		c0.5,0.2,1,0.2,1.5,0.3c1.4,0.3,2.8,0.1,4.1-0.4c2.1-0.8,4.1-1.9,6.3-2.4c0.4-0.1,0.7-0.1,1.1-0.2c0.1,0,0.3,0,0.4,0
		c0.1,0,0.2,0,0.3,0c0.1,0,0.2,0,0.3,0c0.1,0,0.3,0,0.4,0c0.4,0,0.7,0.1,1.1,0.2c2.2,0.5,4.2,1.5,6.3,2.4c1.4,0.6,2.7,0.8,4.1,0.4
		c0.5-0.1,1-0.2,1.5-0.3c1.3-0.4,2.8-0.8,3.7-1.8l0,0c0.8-0.5,1.6-1.3,2.4-2V40.5z"/>
	<g>
		<ellipse transform="matrix(0.9316 -0.3635 0.3635 0.9316 -4.6812 9.5207)" class="st0" cx="23" cy="17.2" rx="6.2" ry="6.2"/>
	</g>
	<path class="st1" d="M24.9,16.7c0.2,0.1,0.4,0.2,0.6,0.3c0.5,0.4,0.8,0.9,0.8,1.7c0,0.7-0.2,1.2-0.7,1.6c-0.6,0.5-1.4,0.8-2.4,0.8
		c-0.8,0-1.4-0.1-1.9-0.4c-0.5-0.3-0.9-0.7-1.1-1.2v0c0-0.1-0.1-0.1-0.1-0.2c0,0,0,0-0.1-0.1c-0.1,0-0.1-0.1-0.1-0.2
		c0-0.1,0-0.1,0.1-0.2c0,0,0.1-0.1,0.2-0.1h1.8c0.1,0,0.2,0,0.2,0.1c0.1,0.2,0.2,0.3,0.4,0.4c0.2,0.1,0.5,0.2,0.7,0.2
		c0.4,0,0.6-0.1,0.8-0.2c0.2-0.1,0.3-0.3,0.3-0.6c0-0.4-0.4-0.6-1.2-0.7c-0.9,0-1.7-0.2-2.2-0.6c-0.5-0.4-0.8-1-0.8-1.7
		c0-0.6,0.3-1.2,0.8-1.6c0.6-0.5,1.3-0.8,2.3-0.8c0.8,0,1.5,0.2,2.1,0.6c0.5,0.4,0.9,0.9,0.9,1.6c0,0.1,0,0.1-0.1,0.1
		c0,0-0.1,0.1-0.2,0.1h-1.6c-0.1,0-0.2,0-0.2-0.1c-0.1-0.4-0.5-0.6-1-0.6c-0.7,0-1,0.3-1,0.8c0,0.2,0.1,0.4,0.3,0.5
		c0.1,0,0.2,0.1,0.3,0.1c0.1,0,0.3,0.1,0.5,0.1C24,16.5,24.6,16.6,24.9,16.7z"/>
	<g>
		<path class="st0" d="M17.8,26.6c-1.1,0.5-2.2,0.9-3.4,1.1c-2.9,0.5-5.1-0.9-6.3-3.5c-0.1-0.3-0.1-0.6,0.3-0.8
			c1.3-0.5,2.6-0.9,3.8-0.9c2.7,0,4.3,0.9,5.8,3C18.5,26.2,18.2,26.4,17.8,26.6z"/>
		<path class="st0" d="M27.9,25.6c1.5-2.1,3.2-3.1,5.8-3c1.2-0.1,2.5,0.4,3.8,0.9c0.5,0.2,0.5,0.4,0.3,0.8c-1.2,2.6-3.4,3.9-6.3,3.5
			c-1.2-0.2-2.3-0.6-3.4-1.1C27.7,26.4,27.4,26.2,27.9,25.6z"/>
	</g>
</g>
<g>
	<path class="st1" d="M68.8,24.2c0.3,0.5,0.5,1.1,0.5,1.8v3.7c0,1.3-0.4,2.3-1.3,3.2c-0.9,0.9-2,1.3-3.4,1.3h-7.3
		c-0.4,0-0.7-0.2-0.7-0.7v-3c0-0.4,0.2-0.7,0.7-0.7h6.1c0.6,0,0.8-0.3,0.8-0.8v-1.6c0-0.5-0.2-0.9-0.7-1l-4.4-1.1
		c-0.7-0.1-1.2-0.4-1.7-0.9c0,0,0,0-0.1-0.1c-0.2-0.2-0.3-0.4-0.4-0.5c-0.3-0.5-0.5-1.1-0.5-1.8V19c0-1.3,0.4-2.3,1.3-3.2
		c0.9-0.9,2-1.3,3.4-1.3H68c0.4,0,0.7,0.2,0.7,0.7v3c0,0.4-0.2,0.7-0.7,0.7h-5.8c-0.6,0-0.8,0.3-0.8,0.8v1.1c0,0.5,0.2,0.9,0.7,1
		l4.4,1.1c0.6,0.1,1.2,0.4,1.7,0.9c0,0,0,0,0.1,0.1C68.5,23.8,68.7,24,68.8,24.2z"/>
	<path class="st1" d="M76.3,28c-0.1,0-0.1,0-0.1,0.1v5.5c0,0.4-0.2,0.7-0.6,0.7h-3.7c-0.4,0-0.7-0.2-0.7-0.7V18.9
		c0-0.4,0.2-0.7,0.7-0.7h3.7c0.4,0,0.6,0.2,0.6,0.7v5.5c0,0.1,0,0.1,0.1,0.1h4.2c0.1,0,0.1,0,0.1-0.1v-5.5c0-0.4,0.2-0.7,0.6-0.7H85
		c0.4,0,0.7,0.2,0.7,0.7v14.6c0,0.4-0.2,0.7-0.7,0.7h-3.7c-0.4,0-0.6-0.2-0.6-0.7v-5.5c0-0.1,0-0.1-0.1-0.1H76.3z"/>
	<path class="st1" d="M92.5,33.6c0,0.4-0.2,0.7-0.6,0.7h-3.7c-0.4,0-0.7-0.2-0.7-0.7V18.9c0-0.4,0.2-0.7,0.7-0.7h3.7
		c0.4,0,0.6,0.2,0.6,0.7V33.6z"/>
	<path class="st1" d="M107.3,25.3c0,1-0.5,1.9-1.4,2.6c-0.9,0.7-2,1.1-3.2,1.1h-3.3c-0.1,0-0.1,0-0.1,0.1v4.4c0,0.4-0.2,0.7-0.7,0.7
		h-3.7c-0.4,0-0.7-0.2-0.7-0.7V18.9c0-0.4,0.2-0.7,0.7-0.7h7.8c1.3,0,2.3,0.4,3.2,1.1c0.9,0.7,1.4,1.6,1.4,2.6V25.3z M99.3,21.7v3.8
		c0,0.1,0,0.1,0.1,0.1h2.1c0.5,0,0.7-0.2,0.7-0.7v-2.6c0-0.5-0.2-0.7-0.7-0.7h-2.1C99.4,21.6,99.3,21.7,99.3,21.7z"/>
	<path class="st1" d="M122.2,25.3c0,1-0.5,1.9-1.4,2.6c-0.9,0.7-2,1.1-3.2,1.1h-3.3c-0.1,0-0.1,0-0.1,0.1v4.4c0,0.4-0.2,0.7-0.7,0.7
		h-3.7c-0.4,0-0.7-0.2-0.7-0.7V18.9c0-0.4,0.2-0.7,0.7-0.7h7.8c1.3,0,2.3,0.4,3.2,1.1c0.9,0.7,1.4,1.6,1.4,2.6V25.3z M114.2,21.7
		v3.8c0,0.1,0,0.1,0.1,0.1h2.1c0.5,0,0.7-0.2,0.7-0.7v-2.6c0-0.5-0.2-0.7-0.7-0.7h-2.1C114.3,21.6,114.2,21.7,114.2,21.7z"/>
	<path class="st1" d="M129,33.6c0,0.4-0.2,0.7-0.6,0.7h-3.7c-0.4,0-0.7-0.2-0.7-0.7V18.9c0-0.4,0.2-0.7,0.7-0.7h3.7
		c0.4,0,0.6,0.2,0.6,0.7V33.6z"/>
	<path class="st1" d="M141.1,26.8v-7.9c0-0.4,0.2-0.7,0.7-0.7h3.7c0.4,0,0.6,0.2,0.6,0.7v14.6c0,0.4-0.2,0.7-0.6,0.7h-5.4
		c-0.4,0-0.7-0.2-0.8-0.6l-3.4-8v7.9c0,0.4-0.2,0.7-0.6,0.7h-3.7c-0.4,0-0.7-0.2-0.7-0.7V18.9c0-0.4,0.2-0.7,0.7-0.7h5.4
		c0.4,0,0.7,0.2,0.8,0.6L141.1,26.8z"/>
	<path class="st1" d="M152.6,34.2c-1.3,0-2.3-0.4-3.2-1.1c-0.9-0.7-1.4-1.6-1.4-2.6V22c0-1,0.5-1.9,1.4-2.6c0.9-0.7,2-1.1,3.2-1.1
		h7.3c0.4,0,0.7,0.2,0.7,0.7v2.2c0,0.4-0.2,0.7-0.7,0.7h-6.7c-0.1,0-0.1,0-0.1,0.1v8.7c0,0.1,0,0.1,0.1,0.1h2.7c0.1,0,0.2,0,0.2-0.1
		v-4.8c0-0.4,0.2-0.7,0.7-0.7h3.7c0.4,0,0.7,0.2,0.7,0.7v7.8c0,0.4-0.2,0.7-0.7,0.7H152.6z"/>
	<path class="st1" d="M171.6,34.2c-0.4,0-0.7-0.2-0.8-0.6l-2.7-11.4v11.4c0,0.4-0.2,0.7-0.6,0.7h-3.7c-0.4,0-0.7-0.2-0.7-0.7V15
		c0-0.4,0.2-0.7,0.7-0.7h5.8c0.4,0,0.7,0.2,0.8,0.6l2.9,12.3l2.9-12.3c0.1-0.4,0.4-0.6,0.8-0.6h5.8c0.4,0,0.7,0.2,0.7,0.7v18.5
		c0,0.4-0.2,0.7-0.7,0.7H179c-0.4,0-0.6-0.2-0.6-0.7V22.2l-2.7,11.4c-0.1,0.4-0.4,0.6-0.8,0.6H171.6z"/>
	<path class="st1" d="M190.8,30.6l-0.6,3.1c-0.1,0.4-0.3,0.6-0.7,0.6h-3.9c-0.4,0-0.6-0.2-0.6-0.5c0-0.1,0-0.1,0-0.2l3.5-14.6
		c0.1-0.4,0.3-0.6,0.7-0.6h6.3c0.4,0,0.7,0.2,0.8,0.6l3.5,14.6c0,0.1,0,0.1,0,0.2c0,0.3-0.2,0.5-0.6,0.5h-3.9
		c-0.4,0-0.7-0.2-0.7-0.6l-0.6-3.1H190.8z M192.4,22.8l-0.9,4.5h1.9L192.4,22.8z"/>
	<path class="st1" d="M211.6,26.8v-7.9c0-0.4,0.2-0.7,0.7-0.7h3.7c0.4,0,0.6,0.2,0.6,0.7v14.6c0,0.4-0.2,0.7-0.6,0.7h-5.4
		c-0.4,0-0.7-0.2-0.8-0.6l-3.4-8v7.9c0,0.4-0.2,0.7-0.6,0.7H202c-0.4,0-0.7-0.2-0.7-0.7V18.9c0-0.4,0.2-0.7,0.7-0.7h5.4
		c0.4,0,0.7,0.2,0.8,0.6L211.6,26.8z"/>
</g>
</svg>
